<?xml version="1.0" encoding="UTF-8"?>
<svg id="Calque_2" data-name="Calque 2" xmlns="http://www.w3.org/2000/svg" version="1.1" viewBox="0 0 1234 1298.2">
  <defs>
    <style>
      .cls-1 {
        fill: none;
      }

      .cls-1, .cls-2 {
        stroke-width: 0px;
      }

      .cls-2 {
        fill: #fff;
      }
    </style>
  </defs>
  <rect class="cls-1" x="1670.5" y="-11.7" width="1227" height="1291.2" rx="198.2" ry="198.2"/>
  <g>
    <path class="cls-2" d="M1920.3,652.5c28.7,9.9,55.2,19.1,81.7,28.2,35.8,12.3,71.4,11.4,106.9-1.5,45.3-16.5,90.9-31.9,135.8-49.4,28.3-11,55-10.8,83.4-.2,47.2,17.6,95.4,32.7,143,49.5,38.7,13.7,76.5,12.6,114.6-2.2,22-8.5,44.5-16,70.2-25.1-11.2,21.6-13.2,45-42.5,48.9-29.1,3.9-57.4,15.2-86.4,16.9-22.4,1.3-46-5-67.9-11.7-48.2-14.9-95.8-31.8-143.3-48.7-19.4-6.9-37.4-6.9-56.9.4-46.3,17.5-93.4,33.2-139.9,50.3-42,15.5-83.7,14.3-125.8,1.2-14.3-4.5-28.7-8.8-43.2-12.4-9.1-2.2-15.5-6.1-18.4-15.8-2.7-9-7-17.6-11.4-28.5h0Z"/>
    <path class="cls-2" d="M2117.4,556.4c-15.6.5-28.4-11.6-28.8-27.3-.4-14,7.9-22.9,21.4-23,15.8-.2,29.5,12.3,29.6,27,.1,12.7-9.7,23-22.3,23.3h0Z"/>
    <path class="cls-2" d="M1836.6,428c57.3,18.1,112.5,35.6,167.4,52.9-4.1,58.3,16.1,93.4,58.3,102.9,36.2,8.2,70.4-12.5,86.5-52.3,18.6-2.4,21.6.4,29.2,17.4,3.8,8.5,10,19,17.7,21.9,18.7,7,35.5-11,28.1-30.1-11.6-30-27-56.6-61.9-67.2-82.8-25.1-165-52.1-247.4-78.4-4.5-1.4-9-2.8-13.5-5.4,30.2-5.3,60.2-12.6,90.8-2.1,59.1,20.3,118.6,39.5,177.2,61.2,77.1,28.5,153.3,26.6,230.1-.6,62.1-21.9,124.5-42.8,187.3-62.8,27.3-8.7,55-1.1,82.2,4.4-65.5,21-131,42-196.5,63.1-25.2,8.1-50.3,16.2-75.4,24.6-30.9,10.3-43.5,36.5-52.8,64.2-4.9,14.6,2.6,26.4,14.9,30,13.7,4,25.9-1.5,30.1-17.1,4.7-17.4,16.4-24.9,32.8-29.7,9.6,38.1,33.8,59.9,73.4,60,31.7,0,57-20.3,67.3-50.6-6.3.9-12.3,2.2-18.3,2.4-14.3.5-24.5-7-28-19.9-3.1-11.4,3.6-25.2,15.4-31.1,3-1.5,6.2-3.3,9.4-3.5,53.8-3,101-29.4,151.8-42.9,11.9-3.2,23.7-6.9,37.3-10.9,4.1,52.8,3.8,103.1-24.5,148.1-7.3,11.6-19.2,22.9-31.7,28.2-40.7,17.2-82.4,31.9-124,46.8-15.8,5.6-31.8,3.8-48.1-1.6-57.5-19-115.3-37.2-173-55.5-31.8-10.1-63.6-8.8-95.1,1.6-52.1,17-104.3,33.6-156,51.5-26.9,9.3-52.4,9.6-79.3-2.7-26.1-12-53.5-21.1-81.1-29-39.4-11.2-61-37.7-72.2-74.7-10.9-36.1-11.6-72.9-8.6-113.2h0Z"/>
  </g>
  <path class="cls-2" d="M2640.2,110.5c20.5,3.3,40,9.2,58.4,18.3,71.2,35.1,112.3,92.5,125.4,170.4,1.4,8.4,1,17.1,1,25.7,0,162.5,0,325,0,487.5,0,56.7-20.9,105-58.6,146.6-43.8,48.4-99.4,70.1-163.7,70.5-85.8.6-171.7.4-257.6.2-5.9,0-11.5,2.3-15.6,6.5-49.3,50.2-106.7,89.4-169,121.6-60.3,31.2-123,56.4-188.7,73.7-3,.8-5.9,1.6-8.9,2.2-7.1,1.5-13.6.8-18-5.8-4.5-6.8-5-13.9,0-20.6,4.4-5.9,9.4-11.3,14.2-16.8,37.1-42.5,69-88.3,90.3-140.9,2.4-5.9,4.3-12,7-19.7-4.3,0-7.5,0-10.6,0-34.6-.5-69.4.9-103.9-1.8-70.3-5.5-124.6-39.7-163.4-98.4-23.6-35.7-35.7-77.8-35.7-120.6.1-161.8,0-323.6,0-485.3.1-103.3,80.6-197.2,182.3-213.2.8-.1,1.7.2,3.7.4-1.5,7.9-2.9,15.6-4.4,23.3-2.5,7.5-4.1,15.2-4.4,22.8,0,1.1-.1,2.2-.3,3.3-1.8,11-5.6,13.3-14.3,16.8-59.8,24.1-97.7,79.3-97.9,143.7-.4,167.1-.5,334.2-.2,501.3.1,67.2,55.7,130.3,123.7,141.3,13.2,2.2,26.8,3.3,40.2,3.4,49.1.4,98.1.2,147.2.2h11c1,55.4-13.6,105.1-44.6,151.5,3.2-1.1,5.5-1.7,7.5-2.6,71-33.8,137.9-73.8,193-130.6,13.8-14.3,27.2-18.8,46.1-18.6,91.1.7,182.1.8,273.2-.1,72-.7,132.5-45.8,150.9-111.4,3.8-13.7,5.7-28.4,5.7-42.6.3-162.5.2-325,0-487.5,0-61.8-27.8-107.9-80.6-139.1-7.8-4.6-16.8-7.4-24.9-11.6-2.5-1.3-5.3-4.3-5.8-6.9-3.6-18.6-6.5-37.2-10-57.2h0Z"/>
  <path class="cls-2" d="M2088.3,74.7c11.7,33.6,34.6,52.6,69.6,63.3-34.9,11.5-58,31.9-69.5,64.4-11.8-33-35-53.3-69-63.9,32.7-10.6,56.9-29.5,68.9-63.8Z"/>
  <path class="cls-2" d="M2470.6,74.7c11.7,33.6,34.6,52.6,69.6,63.3-34.9,11.5-58,31.9-69.5,64.4-11.8-33-35-53.3-69-63.9,32.7-10.6,56.9-29.5,68.9-63.8h0Z"/>
  <path class="cls-2" d="M2047,866.2c18.8,6.5,36.2,12.5,53.6,18.5,23.5,8.1,46.8,7.5,70.1-1,29.7-10.8,59.6-20.9,89-32.4,18.5-7.2,36-7.1,54.7-.2,31,11.5,62.5,21.4,93.7,32.5,25.3,9,50.2,8.3,75.1-1.4,14.4-5.6,29.1-10.5,46-16.5-7.4,14.2-8.7,29.5-27.9,32.1-19,2.5-37.6,10-56.6,11.1-14.7.9-30.2-3.3-44.5-7.7-31.6-9.8-62.8-20.8-93.9-31.9-12.7-4.5-24.5-4.5-37.3.3-30.4,11.5-61.2,21.8-91.7,33-27.5,10.2-54.9,9.4-82.5.8-9.4-2.9-18.8-5.8-28.3-8.1-6-1.5-10.2-4-12.1-10.3-1.8-5.9-4.6-11.6-7.4-18.7"/>
  <path class="cls-2" d="M1998.6,804.6c22.6,7.8,43.4,15,64.3,22.2,28.2,9.7,56.2,9,84.1-1.2,35.6-13,71.6-25.1,106.9-38.9,22.3-8.7,43.3-8.5,65.7-.2,37.2,13.8,75.1,25.7,112.5,39,30.4,10.8,60.2,9.9,90.2-1.7,17.3-6.7,35-12.5,55.2-19.8-8.8,17-10.4,35.4-33.5,38.5-22.9,3.1-45.2,12-68,13.3-17.6,1-36.2-3.9-53.4-9.2-37.9-11.7-75.4-25-112.8-38.3-15.3-5.4-29.5-5.5-44.8.3-36.5,13.8-73.5,26.1-110.1,39.6-33,12.2-65.9,11.2-99,1-11.3-3.5-22.6-6.9-34-9.7-7.2-1.8-12.2-4.8-14.5-12.4-2.1-7.1-5.5-13.9-8.9-22.4"/>
  <path class="cls-2" d="M1964,734.6c25.3,8.7,48.6,16.8,72,24.9,31.5,10.8,62.9,10,94.2-1.3,39.9-14.5,80.1-28.1,119.7-43.5,24.9-9.7,48.4-9.5,73.5-.2,41.6,15.5,84.1,28.8,126,43.6,34.1,12.1,67.5,11.1,101-1.9,19.4-7.5,39.2-14,61.9-22.1-9.9,19.1-11.6,39.6-37.5,43.1-25.6,3.4-50.6,13.4-76.1,14.9-19.7,1.2-40.5-4.4-59.8-10.3-42.5-13.1-84.4-28-126.2-42.9-17.1-6.1-33-6.1-50.1.3-40.8,15.4-82.3,29.2-123.2,44.4-37,13.6-73.8,12.6-110.8,1.1-12.6-3.9-25.3-7.8-38.1-10.9-8.1-2-13.7-5.4-16.2-13.9-2.4-8-6.1-15.5-10-25.1"/>
  <path class="cls-2" d="M2419.8,347.4c50.3-14.1,160.5-104.9,230.4-179.6,15.5,13.9,60.6,25.2,77,39.9-8.3,8.6,62.5,46.9,54.9,54.3-68.2,65.8-268.5,112.1-356.9,146.7-46.7,18.3-95.2,30.7-146,29.2-43.8-1.3-86.1-11.4-127-26.9-96.7-36.6-275.4-87.8-348.5-161.1-3.7-3.7,41.3-37.3,36.9-42.2,10.7-9.9,51-49.3,61.9-59.3,51.9,53.9,123.4,156.4,192,186.2-100.6-14.4-148.8-121.9-195.9-177.8,2.6-1.9,19.3-32.9,22-34.9,38,43.3,128.3,158,175.3,189-67.3-23.1-145.3-139.3-180.9-180.6,1.8-1.5,30.6,12.9,32,12,1.2-.9,6.2-3.8,7.5-4.6,46.6,47.5,106,128.1,167.6,155.6-93.3-9.1-205.1-111.7-243.8-163.6,7.6-3.7,45.6-16,50.6-18.4,16,20.9,87.3,83.5,116,108.4,56.7,47.6,123.1,91.2,200.3,105.4,55.5,10.2,109.8-.7,160.3-24.7,67.3-32,180.1-68.3,218.3-131.9.5-.8,15.4-56.5,16.3-57.8,2.7,1.3,15.8,29.7,18.4,30.9,2.4,1.2,19.9,3.8,22.8,5.2-50,73.5-190.5,151.2-330.5,173.9,113.3-42.8,231.6-139,289.3-210,4.6,2.7,33.5,51.8,38.5,54.7-27.6,35-108.8,99.9-142.7,127.3-33.8,27.2-68,55.2-116.2,55h0ZM2428.3,377.7c-105.9,36.9-210.2,31.6-313.4-10.3,86.6,64,224,73.2,313.4,10.3Z"/>
  <path class="cls-2" d="M2280.5,74.7c11.7,33.6,34.6,52.6,69.6,63.3-34.9,11.5-58,31.9-69.5,64.4-11.8-33-35-53.3-69-63.9,32.7-10.6,56.9-29.5,68.9-63.8h0Z"/>
</svg>